<?xml version="1.0" standalone="no"?>
<!DOCTYPE svg PUBLIC "-//W3C//DTD SVG 20010904//EN"
 "http://www.w3.org/TR/2001/REC-SVG-20010904/DTD/svg10.dtd">
<svg version="1.0" xmlns="http://www.w3.org/2000/svg"
 width="500.000000pt" height="500.000000pt" viewBox="0 0 500.000000 500.000000"
 preserveAspectRatio="xMidYMid meet">
<metadata>
Created by potrace 1.14, written by Peter Selinger 2001-2017
</metadata>
<g transform="translate(0.000000,500.000000) scale(0.100000,-0.100000)"
fill="#000000" stroke="none">
<path d="M0 2500 l0 -2500 2500 0 2500 0 0 2500 0 2500 -2500 0 -2500 0 0
-2500z m1538 1779 c266 -42 533 -209 717 -449 71 -93 165 -253 205 -348 30
-74 50 -102 50 -71 0 26 112 240 171 329 77 115 216 262 323 342 260 194 592
257 942 179 203 -45 332 -112 470 -243 144 -138 242 -297 309 -502 56 -173 70
-274 69 -506 0 -184 -3 -218 -28 -335 -137 -649 -542 -1214 -1217 -1696 -162
-116 -403 -256 -644 -374 -278 -137 -308 -148 -405 -148 -63 -1 -90 5 -169 36
-233 92 -648 321 -883 487 -730 517 -1165 1177 -1239 1879 -14 138 -7 354 16
471 38 191 115 380 217 527 66 96 209 231 301 285 218 127 522 180 795 137z"/>
</g>
</svg>
